<svg xmlns="http://www.w3.org/2000/svg" width="223" height="65" viewBox="0 0 223 65">
  <g id="logo" transform="translate(-817 -159)">
    <g id="twilio" transform="translate(1130 -217)">
      <path id="Path_1" data-name="Path 1" d="M-195.9,385.8h-8.8a.43.43,0,0,0-.4.4v5.1a.43.43,0,0,0,.4.4h8.8a.43.43,0,0,0,.4-.4v-5.1C-195.4,386-195.6,385.8-195.9,385.8Zm-.1,7.6h-17a.822.822,0,0,0-.6.4l-2.2,8.3-.1.4-2.6-8.9a.675.675,0,0,0-.6-.4h-6.6a.822.822,0,0,0-.6.4l-2.5,8.3-.1.4-.1-.2-1-4.1-1.1-4.1a.675.675,0,0,0-.6-.4H-245v-7.2a.493.493,0,0,0-.6-.4l-8.4,2.6c-.3.1-.4.2-.4.4v4.5h-2.2a.43.43,0,0,0-.4.4v6.4a.43.43,0,0,0,.4.4h2.2v7.8c0,5.5,3,8.1,8.5,8.1a13.314,13.314,0,0,0,6-1.3v-6.6c0-.3-.3-.4-.5-.4a5.451,5.451,0,0,1-2.4.5c-1.5,0-2.3-.6-2.3-2.3v-5.7h4.8a.43.43,0,0,0,.4-.4v-5.4l6.3,20.9a.675.675,0,0,0,.6.4h7a.822.822,0,0,0,.6-.4l3-9.3,1.5,4.8,1.4,4.4a.675.675,0,0,0,.6.4h7a.822.822,0,0,0,.6-.4l6.4-21v21a.43.43,0,0,0,.4.4h8.5a.43.43,0,0,0,.4-.4V393.9a.458.458,0,0,0-.4-.5Zm11.2-7.6h-8.5a.43.43,0,0,0-.4.4v29.5a.43.43,0,0,0,.4.4h8.5a.43.43,0,0,0,.4-.4V386.2A.43.43,0,0,0-184.8,385.8Zm11.3,0h-8.8a.43.43,0,0,0-.4.4v5.1a.43.43,0,0,0,.4.4h8.8a.43.43,0,0,0,.4-.4v-5.1C-173,386-173.2,385.8-173.5,385.8Zm-.1,7.6h-8.5a.43.43,0,0,0-.4.4v21.9a.43.43,0,0,0,.4.4h8.5a.43.43,0,0,0,.4-.4V393.9A.458.458,0,0,0-173.6,393.4Zm14.1-.5c-7.5,0-12.8,5.5-12.8,11.9v.1c0,6.4,5.3,11.8,12.7,11.8,7.5,0,12.8-5.5,12.8-11.9v-.1C-146.8,398.3-152.1,392.9-159.5,392.9Zm3.6,11.9a3.661,3.661,0,0,1-3.6,3.9,3.828,3.828,0,0,1-3.7-4v-.1a3.661,3.661,0,0,1,3.6-3.9A3.857,3.857,0,0,1-155.9,404.8ZM-288,376a25.009,25.009,0,0,0-25,25,25.009,25.009,0,0,0,25,25,25.009,25.009,0,0,0,25-25A25.009,25.009,0,0,0-288,376Zm0,43.4A18.352,18.352,0,0,1-306.4,401,18.352,18.352,0,0,1-288,382.6,18.352,18.352,0,0,1-269.6,401,18.352,18.352,0,0,1-288,419.4Z" fill="#fff"/>
      <circle id="Ellipse_1" data-name="Ellipse 1" cx="5.2" cy="5.2" r="5.2" transform="translate(-287 389.6)" fill="#fff"/>
      <circle id="Ellipse_2" data-name="Ellipse 2" cx="5.2" cy="5.2" r="5.2" transform="translate(-287 402)" fill="#fff"/>
      <circle id="Ellipse_3" data-name="Ellipse 3" cx="5.2" cy="5.2" r="5.2" transform="translate(-299.4 402)" fill="#fff"/>
      <circle id="Ellipse_4" data-name="Ellipse 4" cx="5.2" cy="5.2" r="5.2" transform="translate(-299.4 389.6)" fill="#fff"/>
    </g>
    <text id="Playground" transform="translate(923 219)" fill="#fff" font-size="20" font-family="Montserrat-Regular, Montserrat"><tspan x="0" y="0">Playground</tspan></text>
  </g>
</svg>
